<mxfile host="Electron" modified="2023-08-29T18:11:31.724Z" agent="Mozilla/5.0 (Macintosh; Intel Mac OS X 10_15_7) AppleWebKit/537.36 (KHTML, like Gecko) draw.io/21.6.8 Chrome/114.0.5735.289 Electron/25.5.0 Safari/537.36" etag="2njNmkn87g1zxBp1OXBP" version="21.6.8" type="device">
  <diagram name="第 1 页" id="JJY1dRbT4m0uuV9Fs4KC">
    <mxGraphModel dx="954" dy="727" grid="1" gridSize="10" guides="1" tooltips="1" connect="1" arrows="1" fold="1" page="1" pageScale="1" pageWidth="827" pageHeight="1169" math="0" shadow="0">
      <root>
        <mxCell id="0" />
        <mxCell id="1" parent="0" />
        <mxCell id="P0417RkMMlgfiX8MJU9k-3" value="" style="edgeStyle=orthogonalEdgeStyle;rounded=0;orthogonalLoop=1;jettySize=auto;html=1;" edge="1" parent="1" source="P0417RkMMlgfiX8MJU9k-1" target="P0417RkMMlgfiX8MJU9k-4">
          <mxGeometry relative="1" as="geometry">
            <mxPoint x="310" y="360" as="targetPoint" />
          </mxGeometry>
        </mxCell>
        <mxCell id="P0417RkMMlgfiX8MJU9k-1" value="跟节点入栈" style="rounded=1;whiteSpace=wrap;html=1;" vertex="1" parent="1">
          <mxGeometry x="265" y="240" width="90" height="40" as="geometry" />
        </mxCell>
        <mxCell id="P0417RkMMlgfiX8MJU9k-12" value="" style="edgeStyle=orthogonalEdgeStyle;rounded=0;orthogonalLoop=1;jettySize=auto;html=1;" edge="1" parent="1" source="P0417RkMMlgfiX8MJU9k-4" target="P0417RkMMlgfiX8MJU9k-6">
          <mxGeometry relative="1" as="geometry" />
        </mxCell>
        <mxCell id="P0417RkMMlgfiX8MJU9k-31" style="edgeStyle=orthogonalEdgeStyle;rounded=0;orthogonalLoop=1;jettySize=auto;html=1;entryX=0;entryY=0.5;entryDx=0;entryDy=0;" edge="1" parent="1" source="P0417RkMMlgfiX8MJU9k-4" target="P0417RkMMlgfiX8MJU9k-26">
          <mxGeometry relative="1" as="geometry">
            <mxPoint x="150" y="680" as="targetPoint" />
            <Array as="points">
              <mxPoint x="151" y="347" />
              <mxPoint x="151" y="681" />
            </Array>
          </mxGeometry>
        </mxCell>
        <mxCell id="P0417RkMMlgfiX8MJU9k-4" value="栈是否不为空" style="rhombus;whiteSpace=wrap;html=1;" vertex="1" parent="1">
          <mxGeometry x="215" y="307" width="190" height="80" as="geometry" />
        </mxCell>
        <mxCell id="P0417RkMMlgfiX8MJU9k-11" value="" style="edgeStyle=orthogonalEdgeStyle;rounded=0;orthogonalLoop=1;jettySize=auto;html=1;" edge="1" parent="1" source="P0417RkMMlgfiX8MJU9k-5" target="P0417RkMMlgfiX8MJU9k-7">
          <mxGeometry relative="1" as="geometry" />
        </mxCell>
        <mxCell id="P0417RkMMlgfiX8MJU9k-5" value="获取栈顶节点" style="rounded=1;whiteSpace=wrap;html=1;" vertex="1" parent="1">
          <mxGeometry x="410" y="425" width="90" height="34" as="geometry" />
        </mxCell>
        <mxCell id="P0417RkMMlgfiX8MJU9k-10" value="" style="edgeStyle=orthogonalEdgeStyle;rounded=0;orthogonalLoop=1;jettySize=auto;html=1;" edge="1" parent="1" source="P0417RkMMlgfiX8MJU9k-6" target="P0417RkMMlgfiX8MJU9k-5">
          <mxGeometry relative="1" as="geometry" />
        </mxCell>
        <mxCell id="P0417RkMMlgfiX8MJU9k-16" value="" style="edgeStyle=orthogonalEdgeStyle;rounded=0;orthogonalLoop=1;jettySize=auto;html=1;" edge="1" parent="1" source="P0417RkMMlgfiX8MJU9k-6" target="P0417RkMMlgfiX8MJU9k-14">
          <mxGeometry relative="1" as="geometry" />
        </mxCell>
        <mxCell id="P0417RkMMlgfiX8MJU9k-6" value="栈顶为空？" style="rhombus;whiteSpace=wrap;html=1;" vertex="1" parent="1">
          <mxGeometry x="265" y="417" width="90" height="50" as="geometry" />
        </mxCell>
        <mxCell id="P0417RkMMlgfiX8MJU9k-7" value="栈顶左节点入栈" style="rounded=1;whiteSpace=wrap;html=1;" vertex="1" parent="1">
          <mxGeometry x="410" y="502" width="90" height="40" as="geometry" />
        </mxCell>
        <mxCell id="P0417RkMMlgfiX8MJU9k-13" value="" style="endArrow=classic;html=1;rounded=0;exitX=1;exitY=0.5;exitDx=0;exitDy=0;" edge="1" parent="1" source="P0417RkMMlgfiX8MJU9k-7">
          <mxGeometry width="50" height="50" relative="1" as="geometry">
            <mxPoint x="390" y="567" as="sourcePoint" />
            <mxPoint x="310" y="397" as="targetPoint" />
            <Array as="points">
              <mxPoint x="540" y="522" />
              <mxPoint x="540" y="397" />
            </Array>
          </mxGeometry>
        </mxCell>
        <mxCell id="P0417RkMMlgfiX8MJU9k-18" value="" style="edgeStyle=orthogonalEdgeStyle;rounded=0;orthogonalLoop=1;jettySize=auto;html=1;" edge="1" parent="1" source="P0417RkMMlgfiX8MJU9k-14" target="P0417RkMMlgfiX8MJU9k-17">
          <mxGeometry relative="1" as="geometry" />
        </mxCell>
        <mxCell id="P0417RkMMlgfiX8MJU9k-14" value="取出栈顶节点" style="rounded=1;whiteSpace=wrap;html=1;" vertex="1" parent="1">
          <mxGeometry x="265" y="490" width="90" height="40" as="geometry" />
        </mxCell>
        <mxCell id="P0417RkMMlgfiX8MJU9k-25" style="edgeStyle=orthogonalEdgeStyle;rounded=0;orthogonalLoop=1;jettySize=auto;html=1;exitX=1;exitY=0.5;exitDx=0;exitDy=0;entryX=0;entryY=0.5;entryDx=0;entryDy=0;" edge="1" parent="1" source="P0417RkMMlgfiX8MJU9k-17" target="P0417RkMMlgfiX8MJU9k-19">
          <mxGeometry relative="1" as="geometry" />
        </mxCell>
        <mxCell id="P0417RkMMlgfiX8MJU9k-27" value="" style="edgeStyle=orthogonalEdgeStyle;rounded=0;orthogonalLoop=1;jettySize=auto;html=1;" edge="1" parent="1" source="P0417RkMMlgfiX8MJU9k-17" target="P0417RkMMlgfiX8MJU9k-26">
          <mxGeometry relative="1" as="geometry" />
        </mxCell>
        <mxCell id="P0417RkMMlgfiX8MJU9k-17" value="栈顶为空？" style="rhombus;whiteSpace=wrap;html=1;" vertex="1" parent="1">
          <mxGeometry x="265" y="560" width="90" height="50" as="geometry" />
        </mxCell>
        <mxCell id="P0417RkMMlgfiX8MJU9k-22" value="" style="edgeStyle=orthogonalEdgeStyle;rounded=0;orthogonalLoop=1;jettySize=auto;html=1;" edge="1" parent="1" source="P0417RkMMlgfiX8MJU9k-19" target="P0417RkMMlgfiX8MJU9k-21">
          <mxGeometry relative="1" as="geometry" />
        </mxCell>
        <mxCell id="P0417RkMMlgfiX8MJU9k-19" value="出栈顶节点" style="rounded=1;whiteSpace=wrap;html=1;" vertex="1" parent="1">
          <mxGeometry x="410" y="565" width="90" height="40" as="geometry" />
        </mxCell>
        <mxCell id="P0417RkMMlgfiX8MJU9k-20" value="输出出栈节点元素" style="rounded=1;whiteSpace=wrap;html=1;" vertex="1" parent="1">
          <mxGeometry x="410" y="625" width="90" height="40" as="geometry" />
        </mxCell>
        <mxCell id="P0417RkMMlgfiX8MJU9k-29" style="edgeStyle=orthogonalEdgeStyle;rounded=0;orthogonalLoop=1;jettySize=auto;html=1;" edge="1" parent="1" source="P0417RkMMlgfiX8MJU9k-21">
          <mxGeometry relative="1" as="geometry">
            <mxPoint x="310" y="410" as="targetPoint" />
            <Array as="points">
              <mxPoint x="591" y="705" />
            </Array>
          </mxGeometry>
        </mxCell>
        <mxCell id="P0417RkMMlgfiX8MJU9k-21" value="出栈节点右节点入栈" style="rounded=1;whiteSpace=wrap;html=1;" vertex="1" parent="1">
          <mxGeometry x="410" y="685" width="90" height="40" as="geometry" />
        </mxCell>
        <mxCell id="P0417RkMMlgfiX8MJU9k-26" value="结束" style="ellipse;whiteSpace=wrap;html=1;" vertex="1" parent="1">
          <mxGeometry x="250" y="641" width="120" height="80" as="geometry" />
        </mxCell>
        <mxCell id="P0417RkMMlgfiX8MJU9k-30" value="是" style="text;html=1;strokeColor=none;fillColor=none;align=center;verticalAlign=middle;whiteSpace=wrap;rounded=0;" vertex="1" parent="1">
          <mxGeometry x="260" y="387" width="60" height="30" as="geometry" />
        </mxCell>
        <mxCell id="P0417RkMMlgfiX8MJU9k-32" value="否" style="text;html=1;strokeColor=none;fillColor=none;align=center;verticalAlign=middle;whiteSpace=wrap;rounded=0;" vertex="1" parent="1">
          <mxGeometry x="100" y="330" width="60" height="30" as="geometry" />
        </mxCell>
        <mxCell id="P0417RkMMlgfiX8MJU9k-33" value="是" style="text;html=1;strokeColor=none;fillColor=none;align=center;verticalAlign=middle;whiteSpace=wrap;rounded=0;" vertex="1" parent="1">
          <mxGeometry x="260" y="459" width="60" height="30" as="geometry" />
        </mxCell>
        <mxCell id="P0417RkMMlgfiX8MJU9k-34" value="是" style="text;html=1;strokeColor=none;fillColor=none;align=center;verticalAlign=middle;whiteSpace=wrap;rounded=0;" vertex="1" parent="1">
          <mxGeometry x="270" y="610" width="60" height="30" as="geometry" />
        </mxCell>
        <mxCell id="P0417RkMMlgfiX8MJU9k-35" value="否" style="text;html=1;strokeColor=none;fillColor=none;align=center;verticalAlign=middle;whiteSpace=wrap;rounded=0;" vertex="1" parent="1">
          <mxGeometry x="350" y="437" width="60" height="30" as="geometry" />
        </mxCell>
        <mxCell id="P0417RkMMlgfiX8MJU9k-36" value="否" style="text;html=1;strokeColor=none;fillColor=none;align=center;verticalAlign=middle;whiteSpace=wrap;rounded=0;" vertex="1" parent="1">
          <mxGeometry x="345" y="560" width="60" height="30" as="geometry" />
        </mxCell>
      </root>
    </mxGraphModel>
  </diagram>
</mxfile>
